<?xml version="1.0" encoding="UTF-8"?>
<svg xmlns="http://www.w3.org/2000/svg" xmlns:xlink="http://www.w3.org/1999/xlink" width="100px" height="84px" viewBox="0 0 100 84" version="1.1">
<g id="surface1">
<path style=" stroke:none;fill-rule:nonzero;fill:rgb(0%,0%,0%);fill-opacity:1;" d="M 27.351562 0.0546875 C 23.429688 0.46875 20.589844 2.09375 18.621094 5.054688 C 17.988281 5.996094 17.601562 6.800781 16.898438 8.621094 C 16.105469 10.664062 10.734375 24.667969 9.910156 26.832031 C 9.554688 27.769531 9.226562 28.546875 9.179688 28.5625 C 9.140625 28.578125 8.820312 28.664062 8.480469 28.757812 C 5.644531 29.542969 2.898438 31.929688 1.476562 34.832031 C 0.90625 36.003906 0.71875 36.515625 0.441406 37.769531 L 0.234375 38.667969 L 0.214844 53.105469 L 0.183594 67.542969 L 8.050781 67.542969 L 8.050781 71.492188 C 8.050781 75.640625 8.121094 77.074219 8.363281 78.050781 C 9.078125 80.960938 11.070312 83.019531 13.878906 83.734375 C 17.671875 84.707031 21.585938 82.839844 23.046875 79.355469 C 23.695312 77.808594 23.773438 76.988281 23.773438 71.675781 L 23.773438 67.542969 L 50.023438 67.5625 L 76.265625 67.582031 L 76.3125 72.441406 C 76.351562 76.679688 76.367188 77.363281 76.484375 77.808594 C 76.882812 79.304688 77.332031 80.261719 78.09375 81.210938 C 79.410156 82.839844 81.480469 83.859375 83.746094 83.976562 C 87.171875 84.15625 90.246094 82.152344 91.367188 79 C 91.871094 77.574219 91.949219 76.554688 91.949219 71.492188 L 91.949219 67.542969 L 99.808594 67.542969 L 99.808594 53.574219 C 99.808594 44.539062 99.777344 39.359375 99.734375 38.90625 C 99.390625 35.949219 98.183594 33.507812 96.058594 31.453125 C 94.601562 30.058594 92.75 28.976562 91.261719 28.671875 L 90.789062 28.570312 L 90.527344 27.863281 C 90.214844 27.058594 87.542969 20.121094 84.539062 12.34375 C 83.425781 9.449219 82.359375 6.792969 82.179688 6.425781 C 80.5 3.046875 77.746094 0.972656 73.933594 0.21875 L 73.078125 0.046875 L 50.351562 0.03125 C 37.851562 0.03125 27.5 0.0390625 27.351562 0.0546875 Z M 72.53125 8.65625 C 72.78125 8.730469 73.160156 8.878906 73.363281 8.988281 C 73.878906 9.269531 74.570312 10.03125 74.917969 10.703125 C 75.074219 11 75.847656 12.976562 76.617188 15.082031 C 77.394531 17.199219 78.789062 20.96875 79.707031 23.46875 C 80.632812 25.96875 81.402344 28.074219 81.417969 28.144531 C 81.457031 28.28125 79.925781 28.289062 50 28.289062 C 20.074219 28.289062 18.542969 28.28125 18.582031 28.144531 C 18.597656 28.074219 19.367188 25.96875 20.292969 23.46875 C 21.210938 20.96875 22.605469 17.199219 23.382812 15.082031 C 24.152344 12.976562 24.925781 11 25.082031 10.695312 C 25.429688 10.03125 26.230469 9.191406 26.753906 8.941406 C 27.59375 8.53125 26.332031 8.554688 49.960938 8.550781 C 69.589844 8.542969 72.117188 8.554688 72.53125 8.65625 Z M 17.59375 37.375 C 19.871094 37.925781 21.617188 39.640625 22.347656 42.054688 C 22.535156 42.675781 22.550781 42.871094 22.550781 43.917969 C 22.550781 44.976562 22.535156 45.167969 22.339844 45.800781 C 21.78125 47.671875 20.589844 49.09375 18.90625 49.914062 C 17.925781 50.390625 17.210938 50.554688 16.105469 50.550781 C 14.417969 50.550781 13.054688 49.984375 11.792969 48.785156 C 10.449219 47.492188 9.753906 45.847656 9.753906 43.9375 C 9.753906 42.101562 10.316406 40.621094 11.507812 39.28125 C 12.363281 38.324219 13.714844 37.558594 14.984375 37.304688 C 15.632812 37.179688 16.914062 37.210938 17.59375 37.375 Z M 85.304688 37.375 C 87.582031 37.925781 89.328125 39.640625 90.058594 42.054688 C 90.238281 42.667969 90.261719 42.871094 90.261719 43.878906 C 90.261719 44.796875 90.230469 45.132812 90.097656 45.636719 C 89.582031 47.515625 88.355469 49.0625 86.695312 49.882812 C 85.707031 50.375 84.953125 50.550781 83.855469 50.550781 C 82.136719 50.550781 80.78125 50 79.503906 48.785156 C 78.15625 47.492188 77.457031 45.832031 77.464844 43.925781 C 77.464844 42.925781 77.597656 42.1875 77.933594 41.332031 C 78.757812 39.273438 80.585938 37.722656 82.695312 37.304688 C 83.339844 37.179688 84.625 37.210938 85.304688 37.375 Z M 85.304688 37.375 "/>
</g>
</svg>
